# xmcd
#
# Track frame offsets:
#	150
#	22160
#	48210
#	68275
#	86605
#	113747
#	136860
#	150350
#	168805
#	192622
#	211135
#	235655
#	255292
#
# Disc length: 3670 seconds
#
# Revision: 0
# Processed by: cddbd v1.4PL0 Copyright (c) Steve Scherf et al.
# Submitted via: EasyCDDAExtractor 4.6.9.1
#
DISCID=970e540d
DTITLE=Tim Maia - Pra Sempre
DYEAR=2001
DGENRE=MPB
TTITLE0=Eu Te Adoro
TTITLE1=Pro Meu Grande Amor
TTITLE2=Pra Fazer Você Sorrir
TTITLE3=Eu Confesso
TTITLE4=Será Que Isso É Vida
TTITLE5=Dizer Que Te Amo
TTITLE6=Crazy Feelings
TTITLE7=Não Se Envolva
TTITLE8=Sozinho
TTITLE9=Eu Sei Que Vou Te Amar
TTITLE10=Saigon
TTITLE11=Só Você
TTITLE12=Azul Da Cor Do Mar (Ao Vivo) - Bonus Track
EXTD=ERD79\n
EXTT0=
EXTT1=
EXTT2=
EXTT3=
EXTT4=
EXTT5=
EXTT6=
EXTT7=
EXTT8=
EXTT9=
EXTT10=
EXTT11=
EXTT12=
PLAYORDER=
